<?xml version="1.0" encoding="utf-8"?>
<!-- Generator: Adobe Illustrator 15.0.0, SVG Export Plug-In  -->
<!DOCTYPE svg PUBLIC "-//W3C//DTD SVG 1.1//EN" "http://www.w3.org/Graphics/SVG/1.1/DTD/svg11.dtd" [
	<!ENTITY ns_flows "http://ns.adobe.com/Flows/1.0/">
]>
<svg version="1.1"
	 xmlns="http://www.w3.org/2000/svg" xmlns:xlink="http://www.w3.org/1999/xlink" xmlns:a="http://ns.adobe.com/AdobeSVGViewerExtensions/3.0/"
	 x="0px" y="0px" width="75px" height="75px" viewBox="-5.52 -16.141 75 75"
	 overflow="visible" enable-background="new -5.52 -16.141 75 75" xml:space="preserve">
<defs>
</defs>
<path fill="#FFFFFF" d="M65.503,22.199c1.559,2.121,2.477,4.719,2.477,7.516c0,7.184-6.016,13.004-13.449,13.004
	c-7.426,0-13.441-5.82-13.441-13.004c0-7.176,6.016-12.997,13.441-12.997c3.129,0,6.008,1.036,8.289,2.766L52.05,33.523
	l-4.492-4.516l-2.652,2.641l7.699,7.605L65.503,22.199z"/>
<path fill="#FFFFFF" d="M56.738,3.57v9.457c-0.578-0.051-1.172-0.082-1.785-0.082c-3.57,0-6.906,1.086-9.652,2.969l-1.898-2.528
	l13.336-9.863C56.738,3.539,56.738,3.554,56.738,3.57z"/>
<path fill="#FFFFFF" d="M55.117,0.578L28.378,20.25L1.867,0.433C2.363,0.148,2.945,0,3.57,0h49.599
	C53.894,0,54.554,0.218,55.117,0.578z"/>
<path fill="#FFFFFF" d="M40.742,15.375l2.004,2.64c-3.09,3.129-5.012,7.426-5.012,12.149c0,0.988,0.082,1.949,0.246,2.895H3.57
	c-0.293,0-0.578-0.039-0.856-0.105l13.368-17.676l12.296,9.23L40.742,15.375z"/>
<path fill="#FFFFFF" d="M13.441,13.289L0.234,30.742C0.085,30.343,0,29.933,0,29.488V3.57c0-0.129,0-0.246,0.015-0.359
	L13.441,13.289z"/>
</svg>
