<?xml version="1.0" encoding="utf-8"?>
<!-- Generator: Adobe Illustrator 15.0.0, SVG Export Plug-In  -->
<!DOCTYPE svg PUBLIC "-//W3C//DTD SVG 1.1//EN" "http://www.w3.org/Graphics/SVG/1.1/DTD/svg11.dtd" [
	<!ENTITY ns_flows "http://ns.adobe.com/Flows/1.0/">
]>
<svg version="1.1"
	 xmlns="http://www.w3.org/2000/svg" xmlns:xlink="http://www.w3.org/1999/xlink" xmlns:a="http://ns.adobe.com/AdobeSVGViewerExtensions/3.0/"
	 x="0px" y="0px" width="75px" height="75px" viewBox="-3.773 -3.734 75 75"
	 overflow="visible" enable-background="new -3.773 -3.734 75 75" xml:space="preserve">
<defs>
</defs>
<path fill="#94948D" d="M41.379,18.164c-1.168,1.082-2.57,1.868-4.207,1.868c-1.641,0-3.051-0.786-4.226-1.868
	c-1.176-1.086-1.762-2.519-1.762-4.058s0.586-2.981,1.762-4.074c1.175-1.094,2.585-1.762,4.226-1.762s3.043,0.547,4.207,1.641
	c1.168,1.093,1.746,2.652,1.746,4.195C43.125,15.645,42.547,17.078,41.379,18.164z M41.43,57.157
	c-2.142,0.844-3.074,0.578-4.352,1.023s-2.762,0.664-4.446,0.664c-2.597,0-4.617-0.637-6.054-1.898c-1.442-1.266-3-2.875-3-4.82
	c0-0.094-0.207-3.77,1.003-6.285l3.723-8.703c0.238-0.91,0.442-1.77,0.602-2.578c0.16-0.813,0.242-0.906,0.242-1.574
	c0-1.211-0.766-2.055-1.266-2.531c-0.5-0.477-2.621-0.715-4.035-0.715c-0.691,0-1.402,0.109-2.129,0.324
	c-0.726,0.215-1.512,0.422-2.031,0.617l0.195-3.57c1.754-0.715,5.282-1.715,6.887-2.223c1.602-0.508,3.117-0.762,4.547-0.762
	c2.578,0,5.211,0.625,6.609,1.868c1.395,1.242,3.133,3.253,3.133,5.242c0,0.41-0.047,1.133-0.148,2.176
	c-0.094,1.039-0.273,1.992-0.535,2.855l-4.352,8.668c-0.219,0.762-0.414,1.625-0.586,2.598s-0.258,2.992-0.258,3.492
	c0,1.254,0.281,2.109,0.844,2.566s1.145,1.203,2.527,1.203c1.875,0,1.762,0.312,3.594-0.551L41.43,57.157z M33.75,0
	C15.11,0,0,15.11,0,33.75C0,52.391,15.11,67.5,33.75,67.5s33.746-15.109,33.746-33.75C67.497,15.11,52.391,0,33.75,0z"/>
</svg>
