<?xml version="1.0" encoding="utf-8"?>
<!-- Generator: Adobe Illustrator 15.0.0, SVG Export Plug-In . SVG Version: 6.00 Build 0)  -->
<svg version="1.2" baseProfile="tiny" id="Layer_1" xmlns="http://www.w3.org/2000/svg" xmlns:xlink="http://www.w3.org/1999/xlink"
	 x="0px" y="0px" width="75px" height="75px" viewBox="0 0 75 75" overflow="inherit" xml:space="preserve" fill="#ffffff">
<path d="M28.051,68.625c-1.199,0-2.324-0.449-3.149-1.273L5.254,47.102c-1.875-1.727-1.949-4.648-0.149-6.523
	c1.727-1.875,4.649-1.949,6.524-0.148l14.398,10.273c0.825,0.75,2.102,0.602,2.774-0.301L62.926,8.25
	c1.5-2.023,4.426-2.477,6.449-0.898c2.023,1.5,2.477,4.425,0.898,6.449L31.727,66.75c-0.825,1.051-2.024,1.727-3.301,1.801
	C28.273,68.625,28.199,68.625,28.051,68.625z"/>
</svg>
