<?xml version="1.0" encoding="utf-8"?>
<!-- Generator: Adobe Illustrator 15.0.0, SVG Export Plug-In  -->
<!DOCTYPE svg PUBLIC "-//W3C//DTD SVG 1.1//EN" "http://www.w3.org/Graphics/SVG/1.1/DTD/svg11.dtd" [
	<!ENTITY ns_flows "http://ns.adobe.com/Flows/1.0/">
]>
<svg version="1.1"
	 xmlns="http://www.w3.org/2000/svg" xmlns:xlink="http://www.w3.org/1999/xlink" xmlns:a="http://ns.adobe.com/AdobeSVGViewerExtensions/3.0/"
	 x="0px" y="0px" width="75px" height="75px" viewBox="-13.79 -5.28 75 75"
	 overflow="visible" enable-background="new -13.79 -5.28 75 75" xml:space="preserve">
<defs>
</defs>
<path fill="#ffffff" d="M29.503,52.962h-4.559v-4.559h-2.359v4.559h-4.559v2.41h4.559v4.559h2.359v-4.559h4.559V52.962z M34.011,54.169
	c0,5.66-4.612,10.273-10.273,10.273c-5.66,0-10.273-4.613-10.273-10.273s4.613-10.273,10.273-10.273
	C29.452,43.896,34.011,48.505,34.011,54.169z M47.405,43.931c0,0,0.051,3.516-0.516,4.941c0,0-3.715,2.409-10.348,4.074
	c-0.613-6.531-6.109-11.641-12.801-11.641c-6.695,0-12.191,5.113-12.801,11.648c-6.66-1.664-10.382-4.086-10.382-4.086
	c-0.567-1.426-0.516-4.941-0.516-4.941c-0.18-2.531,0.035-7.641,4.469-8.766c5.945-1.512,10.879-3.812,10.879-3.812
	c0.543-0.746,1.382-2.801,1.906-4.297c-5.973-4.625-4.793-15.535-4.793-15.535C13.03-0.132,22.78-0.034,23.737,0.005
	c0.957-0.039,10.707-0.137,11.242,11.516c0,0,1.195,11.082-4.938,15.644c0.57,1.391,1.398,3.196,1.832,3.938
	c0.035,0.019,5.117,2.559,11.043,4.066c4.434,1.125,4.645,6.242,4.469,8.77L47.405,43.931z"/>
</svg>
