<?xml version="1.0" encoding="utf-8"?>
<!-- Generator: Adobe Illustrator 15.0.0, SVG Export Plug-In . SVG Version: 6.00 Build 0)  -->
<svg version="1.2" baseProfile="tiny" id="Layer_1" xmlns="http://www.w3.org/2000/svg" xmlns:xlink="http://www.w3.org/1999/xlink"
	 x="0px" y="0px" width="75px" height="75px" viewBox="0 0 75 75" overflow="inherit" xml:space="preserve" fill="#ffffff">
<path d="M46.609,37.5l22.664-22.664c0.871-0.871,0.871-2.277,0-3.145L63.312,5.73c-0.866-0.867-2.276-0.867-3.144,0L37.5,28.391
	L14.836,5.727c-0.867-0.868-2.277-0.868-3.148,0l-5.961,5.961c-0.872,0.867-0.872,2.277,0,3.144l22.664,22.664L5.727,60.164
	c-0.872,0.871-0.872,2.277,0,3.145l5.961,5.961c0.871,0.871,2.277,0.871,3.148,0L37.5,46.609l22.664,22.664
	c0.871,0.871,2.277,0.871,3.145,0l5.961-5.962c0.871-0.866,0.871-2.276,0-3.144L46.609,37.5z"/>
</svg>
