<?xml version="1.0" standalone="no"?>
<!DOCTYPE svg PUBLIC "-//W3C//DTD SVG 20010904//EN"
 "http://www.w3.org/TR/2001/REC-SVG-20010904/DTD/svg10.dtd">
<svg version="1.0" xmlns="http://www.w3.org/2000/svg"
 width="400.000000pt" height="400.000000pt" viewBox="0 0 400.000000 400.000000"
 preserveAspectRatio="xMidYMid meet">
<metadata>
Created by potrace 1.11, written by Peter Selinger 2001-2013
</metadata>
<g transform="translate(0.000000,400.000000) scale(0.100000,-0.100000)"
fill="#000000" stroke="none">
<path d="M1761 3488 c-24 -73 -50 -148 -57 -166 l-13 -33 -53 39 c-29 21 -104
73 -165 116 -86 58 -113 72 -113 59 0 -10 9 -72 20 -138 11 -66 20 -128 20
-137 0 -13 -19 -4 -77 36 -75 51 -135 86 -148 86 -4 0 3 -15 14 -32 34 -52 89
-163 112 -226 12 -31 25 -61 30 -66 4 -5 41 7 84 28 306 147 623 177 985 94
11 -2 16 7 18 32 5 64 34 194 57 258 12 34 21 62 18 62 -13 0 -92 -73 -139
-128 -32 -38 -56 -58 -58 -50 -3 7 -8 72 -11 143 -4 72 -10 136 -14 143 -5 8
-31 -15 -80 -70 -138 -155 -193 -211 -200 -201 -3 5 -44 71 -91 146 -47 75
-87 137 -90 137 -3 0 -25 -60 -49 -132z"/>
<path d="M1805 3094 c-106 -18 -237 -56 -326 -96 l-72 -32 39 -13 c41 -14 89
-52 117 -93 26 -38 21 -41 -29 -20 -61 26 -137 26 -180 0 -75 -47 -100 -184
-55 -300 11 -30 21 -56 21 -58 0 -2 -13 6 -30 18 -73 52 -114 182 -88 283 8
31 12 57 8 57 -15 0 -160 -133 -214 -196 -89 -104 -207 -287 -193 -300 2 -2
30 -9 63 -15 32 -6 61 -12 62 -14 2 -2 -17 -33 -42 -69 -59 -81 -146 -265
-180 -376 -28 -93 -53 -226 -44 -235 3 -3 54 10 114 29 59 20 109 34 111 32 2
-2 -1 -34 -7 -72 -13 -91 -13 -311 1 -431 11 -104 47 -241 80 -304 l20 -40 37
29 c68 54 196 196 277 305 90 124 84 125 112 -18 24 -118 21 -339 -6 -491 -11
-67 -21 -128 -21 -136 0 -15 73 -52 161 -82 144 -47 398 -48 553 -2 112 34
212 76 289 123 41 25 61 32 66 24 4 -6 15 -45 25 -86 l18 -75 30 17 c56 32
234 211 287 287 88 127 154 300 177 461 l7 50 53 -60 c29 -32 55 -57 57 -55 9
10 37 109 54 190 26 122 25 394 -1 505 -39 169 -120 356 -215 500 l-46 70 -3
-37 c-2 -21 -6 -38 -10 -38 -4 0 -28 24 -54 54 l-47 53 21 20 20 21 -20 46
c-24 54 -41 57 -95 20 -34 -23 -40 -24 -55 -11 -20 17 -82 50 -87 45 -12 -12
97 -144 170 -207 47 -40 84 -75 82 -77 -2 -3 -28 1 -58 7 -63 14 -212 6 -252
-12 -27 -12 -30 -10 -127 92 -54 57 -99 111 -100 119 0 9 9 33 20 55 11 22 20
41 20 42 0 12 -44 -2 -76 -23 -33 -23 -41 -24 -59 -13 -35 22 -113 59 -153 73
-34 12 -45 12 -89 -3 -62 -21 -155 -80 -150 -95 2 -6 29 -24 60 -40 50 -25 72
-30 176 -36 l120 -7 60 -52 c33 -29 79 -75 103 -103 44 -53 45 -52 -24 -31
-13 3 -106 7 -208 7 -171 1 -189 3 -235 24 -86 40 -164 133 -165 198 0 18 -8
22 -45 27 -26 2 -49 8 -53 12 -10 11 86 92 138 117 60 28 59 26 25 54 l-30 25
30 25 c72 60 290 144 373 144 28 0 102 -39 209 -111 40 -27 77 -49 83 -49 5 0
17 27 27 60 9 33 21 60 28 60 30 0 271 -165 319 -219 33 -37 35 -23 6 47 -16
37 -34 96 -41 131 -12 61 -14 65 -73 109 -34 24 -93 60 -132 78 -70 32 -204
77 -210 71 -2 -1 3 -21 11 -42 8 -22 14 -52 15 -67 0 -25 -3 -24 -54 28 -30
29 -76 67 -102 84 -47 30 -49 30 -183 29 -75 -1 -172 -7 -216 -15z m724 -968
c31 -19 69 -40 84 -45 l28 -11 -3 -92 -3 -91 -70 -54 c-141 -109 -297 -176
-329 -142 -13 14 -146 263 -146 274 0 3 45 35 99 71 103 67 218 122 260 123
13 1 49 -15 80 -33z m367 -43 c26 -93 26 -280 0 -338 l-18 -40 -18 35 c-10 19
-41 62 -69 95 l-51 59 0 86 1 85 62 42 c34 24 65 43 68 43 3 0 15 -30 25 -67z
m-121 -428 c42 -68 41 -127 -4 -217 -31 -62 -123 -171 -127 -152 -2 5 -5 43
-9 84 -8 100 -14 109 -53 81 -36 -25 -152 -81 -169 -81 -10 0 -93 147 -93 164
0 2 17 10 38 16 49 16 132 63 190 109 40 30 57 37 112 42 36 3 70 5 75 4 6 -1
24 -23 40 -50z"/>
</g>
</svg>
