<svg id="Layer_1" xmlns="http://www.w3.org/2000/svg" width="585.4" height="279.3" viewBox="0 0 585.4 279.3"><style>.st0{fill:#ed1b5d}</style><path class="st0" d="M450.9 256.9l.3-.2c3.6 2.5 7.1 4.9 10.8 7.3 30.8-22.4 57.9-46.2 81.1-70.3-2.4-1.4-4.7-2.8-7.1-4.2 18.6-17.8 35.2-36.1 49.4-54.7v-26.7c-20.2 23.2-44.4 45.6-72.1 66.7l-.6.4.6.4c2.5 1.7 5 3.3 7.4 4.9-25.8 21.6-55.5 42.6-88.7 61.9-3.8-2.8-7.6-5.7-11.4-8.6l-.3-.2-.3.2c-33.3 17.4-68.8 32.5-105.8 45.1l-.8.3.1.1h100.9c12.6-7.1 24.7-14.6 36.5-22.4zM516.5 279.3h47.1c7.7-8.2 14.9-16.4 21.8-24.7v-53c-3.3 3.4-6.6 6.8-10 10.3l-.5.5.7.3c2.7 1.3 5.3 2.6 8 3.9-19.6 21.2-42 42.3-67.1 62.7zM291.1 258.1c-4.3-4.2-8.5-8.6-12.8-12.9 36.6-11.1 71.8-24.9 104.9-41l.3-.1c3.2 2.9 6.4 5.8 9.7 8.7 33.5-18.2 63.5-38.2 89.6-59.1-2.2-1.7-4.3-3.4-6.5-5.1 30-21.9 55.9-45.5 76.9-70.1 1 .8 2 1.5 3 2.3 11.7-14.9 21.4-29.8 29.1-44.3V23.9c-10.4 15.8-23.7 31.9-39.7 48-1.2-.9-2.3-1.8-3.5-2.7l-.3-.3-.3.3c-24.3 22.2-53.1 43-85.8 61.7l-.6.4.5.5c2.2 2 4.5 3.9 6.7 5.8-28.4 18.1-60.6 34.9-96 49.8-3.4-3.3-6.8-6.6-10.2-10l-.2-.2-.3.1c-35.2 12.9-72.5 23.3-110.7 30.9l-.9.2.6.7c4.1 4.8 8.4 9.7 12.7 14.5-36.3 9-74.9 15.8-115.5 19.9-5.2-6.7-10.4-13.5-15.3-20.4l-.2-.2h-.3c-40.9 2.1-82.9 1.2-125-2.6l-1-.1.5.9c12.1 19.7 25 39.2 38.5 57.9l.2.2h.3c41.8.1 83.3-2.7 123.3-8.5l.3-.1c2.4 2.9 4.8 5.7 7.3 8.6h50.2c24.5-6 48-13.1 70.5-21.1zM472.1 0h-.4l.2.2c.1-.1.2-.1.2-.2z"/></svg>