<svg id="Layer_1" xmlns="http://www.w3.org/2000/svg" width="227.3" height="199.6" viewBox="0 0 227.3 199.6"><style>.st0{fill:none}.st1{fill:#38003c}</style><title>award-promo</title><path class="st0" d="M99.5 185.4l6.2-9 3.1-4.5 1.6-2.2c.1-.2.3-.4.3-.6-8.3-.4-16.7-.9-25-1.7.4-.6 1-1.4 1.4-2.1l6.1-9.1 6.1-9.1 1.5-2.3 1.5-2.3 2.9-4.7 5.8-9.3 2.9-4.7c.5-.8 1-1.5 1.5-2.3l1.4-2.4 10.9-19c1-1.6 1.8-3.2 2.6-4.8l2.5-4.8 3.9-7.5c4.3 0 8.5.1 12.7.1 3.1-.1 6.1-.1 9.2-.1l.9-1.9c3.3-6.6 5.9-13.3 8.8-19.9l4.3-10c.8-1.6 1.4-3.4 2.1-5.1l2-5.3 4-10.5 2-5.2.5-1.3.1-.3.1-.2.1-.2.8-2.6c2.2-6.7 4.2-13.4 6-20.1H144c-3.3 9.9-6.8 19.7-10.5 29.3l-1.1 2.7-.3.7-.5 1.2-.6 1.3-2.3 5.1-4.7 10.2-2.3 5.1c-.8 1.7-1.5 3.3-2.4 5.1l-5.2 10.2c-2.1 4-4.2 8.1-6.3 12.1-5.4-.4-10.8-.7-16.2-1.2-1.9-.1-3.8-.4-5.7-.5-1.6 2.8-3.2 5.5-4.9 8.1l-6 9.7-3 4.9c-1 1.6-2 3.3-3.1 4.8L56 128.1l-1.6 2.4c-.5.8-1.1 1.5-1.7 2.3l-3.4 4.6-6.8 9.2-3.4 4.6-1.7 2.3-1.8 2.2-3.9 4.8c8.3 1.3 16.5 2.5 24.7 3.5l-3 4-6.9 9.2c-.6.8-1.2 1.6-1.8 2.3l-1.8 2.2-3.6 4.4-7.3 8.8c-1.3 1.6-2.5 3.1-3.8 4.7h61.4l3.8-5.1c2.1-3.1 4-6.1 6.1-9.1zM14.2 47l6.8-8.5c1.1-1.4 2.2-3 3.3-4.4l3.3-4.5 6.5-9.1 3.3-4.5.8-1.1.2-.3.1-.2c.1-.1-.2.4-.3.6h.1l.3-.6 1.5-2.3c2.5-3.9 5-7.8 7.4-11.8H1.8C1.2 1.1.7 2 .1 2.8v61.5l.4-.4C5.4 58.3 9.7 52.6 14.2 47zM7.6 173.6l7.3-8.1 3.7-4.1 1.7-2c-6.8-1.2-13.5-2.5-20.2-3.8v26.3l.2-.2c2.5-2.6 4.9-5.4 7.3-8.1zM12 136.3l1.8-2.1 1.7-2.1 3.4-4.2 6.9-8.5 3.5-4.3c.6-.7 1.2-1.4 1.7-2.1l1.6-2.2 13.2-17.5c1.1-1.4 2.2-3 3.2-4.5l3.1-4.6 4.8-6.9c4.2.6 8.4 1.2 12.6 1.7 3 .4 6.1.7 9.1 1l1.4-2.2c4.1-6.1 7.6-12.5 11.3-18.7l5.6-9.4c1-1.5 1.8-3.2 2.7-4.8l2.6-5 5.3-9.9 2.6-5 .6-1.2.2-.3.1-.1.1-.2 1.2-2.5c3.1-6.7 6.1-13.5 9-20.3h-43C74.1 9.3 69.7 18 65.1 26.6l-1.4 2.5-.3.6-.8 1.2-.8 1.2-2.9 4.8-5.9 9.6-2.9 4.8c-1 1.6-1.9 3.2-3.1 4.8l-6.5 9.6c-2 3-4 5.9-6.1 8.9-7.2-1.3-14.3-2.7-21.5-4.3-2.5 3.3-4.9 6.7-7.6 9.8L0 86.7V150l4.6-5.3 7.4-8.4zM212.3.2c-1.8 8.9-3.8 17.7-6 26.6l-.7 2.7-.2.7-.4 1.2-.4 1.3-1.7 5.4-3.4 10.7-1.7 5.4c-.6 1.7-1.1 3.5-1.8 5.3l-3.9 10.8c-1.5 4.2-3 8.5-4.6 12.7-5.4.4-10.8.6-16.2.9-1.9 0-3.8.2-5.7.2-1.2 2.7-2.4 5.5-3.6 8.1l-4.7 10.4-2.4 5.2c-.8 1.7-1.6 3.4-2.5 5.2l-10.3 20.4-1.3 2.5-1.4 2.5-2.8 5-5.6 10-2.8 5-1.4 2.5-1.5 2.5-3.7 5.9c8.3.2 16.6.4 25 .4l-2.5 4.3-5.7 10-1.4 2.5-1.5 2.5-3.1 4.8-3.6 5.7h98.5V.2h-15z"/><path class="st1" d="M39.2 185.9l3.6-4.4 1.8-2.2c.6-.7 1.2-1.5 1.8-2.3l6.9-9.2 3-4c-8.3-1-16.4-2.2-24.7-3.5l3.9-4.8 1.8-2.2L39 151l3.4-4.6 6.8-9.2 3.4-4.6c.6-.8 1.2-1.5 1.7-2.3l1.6-2.4L68.8 109c1.1-1.6 2.1-3.2 3.1-4.8l3-4.9 6-9.7c1.7-2.6 3.2-5.3 4.9-8.1 1.9.1 3.8.3 5.7.5 5.4.5 10.8.8 16.2 1.2 2.1-4 4.1-8 6.3-12.1l5.2-10.2c.9-1.7 1.7-3.4 2.4-5.1l2.3-5.1 4.7-10.2 2.3-5.1.6-1.3.5-1.2.3-.7 1.1-2.7c3.7-9.7 7.2-19.5 10.5-29.3h-22.5c-2.9 6.8-5.8 13.6-9 20.3l-1.2 2.5-.1.2-.1.1-.2.3-.6 1.2-2.6 5-5.3 9.9-2.6 5c-.9 1.6-1.7 3.3-2.7 4.8l-5.6 9.4c-3.7 6.3-7.2 12.6-11.3 18.7l-1.4 2.2c-3-.3-6-.7-9.1-1-4.2-.5-8.4-1.1-12.6-1.7L52.2 84l-3.1 4.6c-1 1.5-2.1 3.1-3.2 4.5l-13.2 17.5-1.6 2.2c-.5.7-1.1 1.4-1.7 2.1l-3.5 4.3-6.9 8.5-3.4 4.2-1.7 2.1-1.8 2.1-7.2 8.2-4.6 5.3v5.8c6.7 1.4 13.4 2.7 20.2 3.8l-1.7 2-3.7 4.1-7.3 8.1c-2.4 2.7-4.8 5.5-7.4 8.1l-.2.2v17.5h28c1.3-1.5 2.5-3.1 3.8-4.7l7.2-8.6zM.1.2v2.5C.7 1.9 1.3 1 1.8.2H.1zM135.6 188.8l1.5-2.5 1.4-2.5 5.7-10 2.5-4.3c-8.4 0-16.7-.1-25-.4l3.7-5.9 1.5-2.5 1.4-2.5 2.8-5 5.6-10 2.8-5 1.4-2.5 1.3-2.5 10.3-20.4c.9-1.7 1.6-3.5 2.5-5.2l2.4-5.2 4.7-10.4 3.6-8.1c1.9 0 3.8-.2 5.7-.2 5.4-.2 10.8-.5 16.2-.9 1.6-4.2 3.1-8.5 4.6-12.7l3.9-10.8c.7-1.8 1.2-3.6 1.8-5.3l1.7-5.4 3.4-10.7 1.7-5.4.4-1.3.4-1.2.2-.7.7-2.7c2.2-8.8 4.2-17.7 6-26.6h-22c-1.9 6.8-3.9 13.5-6 20.1l-.8 2.6-.1.2-.1.2-.1.3-.5 1.3-2 5.2-4 10.5-2 5.3c-.7 1.7-1.3 3.5-2.1 5.1l-4.3 10c-2.9 6.7-5.6 13.4-8.8 19.9l-.9 1.9c-3.1.1-6.1.1-9.2.1-4.2 0-8.5 0-12.7-.1l-3.9 7.5-2.5 4.8c-.9 1.6-1.7 3.2-2.6 4.8l-10.9 19-1.4 2.4c-.5.8-1 1.6-1.5 2.3l-2.9 4.7-5.8 9.3-2.9 4.7-1.5 2.3-1.5 2.3-6.1 9.1-6.1 9.1c-.5.7-1 1.4-1.4 2.1 8.3.7 16.7 1.2 25 1.7-.1.2-.3.4-.3.6l-1.6 2.2-3.1 4.5-6.2 9c-2.1 3-4 6.1-6.3 9l-3.8 5.1h39.4l3.6-5.7 3.1-4.6zM13 70c7.1 1.5 14.3 3 21.5 4.3 2-3 4-5.9 6.1-8.9l6.5-9.6c1.1-1.6 2-3.1 3.1-4.8l2.9-4.8 5.9-9.6 2.9-4.8.8-1.2.8-1.2.3-.6 1.4-2.5C69.8 17.7 74.2 9 78.4.1H47.7c-2.4 4-4.9 7.9-7.4 11.8l-1.5 2.3-.3.6h-.1c.1-.2.4-.7.3-.6l-.1.2-.2.3-.8 1.1-3.3 4.5-6.5 9.1-3.5 4.7c-1.1 1.5-2.2 3-3.3 4.4L14.2 47C9.7 52.6 5.4 58.4.5 63.8l-.4.4v22.2l5.3-6.6C8 76.7 10.5 73.3 13 70z"/></svg>