<svg id="Layer_1" xmlns="http://www.w3.org/2000/svg" width="274.1" height="203.4" viewBox="0 0 274.1 203.4"><style>.st0{fill:#ed1b5d}</style><path class="st0" d="M190.9 162.6l-.3-.2-.3.2c-4 2.9-8 5.8-12 8.6-33.8-21.3-63.8-44-89.7-67.2 2.7-1.6 5.3-3.3 7.8-4.9l.6-.4-.6-.5C66 73.4 40 47.2 19.3 20.5l-.3-.4-.4.2c-1.3.7-2.6 1.5-4 2.2C9.3 14.9 4.4 7.4 0 0v17.8c1.8 3.4 3.7 6.9 5.6 10.3.3-.1.6-.3.8-.4.9-.5 1.8-1 2.6-1.4 17.7 28.4 40.6 56.6 68.1 84-2.5 1.5-4.9 2.9-7.4 4.3 23.6 25.6 51.1 50.9 82.3 74.9 3.8-2.4 7.6-4.9 11.3-7.4l.2.1c10.4 7.3 21.1 14.4 32 21.2H274c-28.9-12.2-56.8-25.9-83.1-40.8zM22.7 139.7c2.9-1.3 5.6-2.5 8.3-3.8l.7-.3-.5-.5C20 123.1 9.6 111.1 0 99v31.3c3.4 4.7 6.9 9.4 10.5 14.1-2.6 1.1-5.3 2.2-7.9 3.3 13.1 18.6 27.8 37.2 44.2 55.7h38.9c-23.6-20.9-44.7-42.3-63-63.7z"/></svg>