<svg id="Layer_1" data-name="Layer 1" xmlns="http://www.w3.org/2000/svg" viewBox="0 0 317.94 340.61"><defs><style>.cls-1{fill:#ed1b5d}</style></defs><title>gallery-shard</title><path class="cls-1" d="M317.94.45c.62-1-53.06 0-53.06 0S202.43 70.86 166.2 105l-1.26 1 1.45.76c6.06 3.25 12.09 6.28 17.9 9.33C131.48 170.64 69.83 224.74 0 275.9v64.71q22.72-17.25 44.53-35.17l.63-.52c8.73 4.8 17.22 9.4 26.16 14 64.35-58 120-118.21 166.77-178.22-5.76-2.6-11.29-5.22-17.05-7.82C258 89.16 290.61 44.87 317.94.45zM0 147.15c33.15-27.05 63.93-54.71 92.22-82.68-5.38-3.32-10.53-6.67-15.91-10 19.63-17.74 56-54 56-54H51.07S34.19 13.09 25.53 19.33l-1.26 1 1.25 1c5.45 4 11.1 7.75 16.53 11.53Q21.7 49.09 0 64.93v82.22z"/></svg>