<svg id="Layer_1" xmlns="http://www.w3.org/2000/svg" width="1719.4" height="600" viewBox="0 0 1719.4 600"><style>.st0{fill:#e90052}</style><path class="st0" d="M1218.7 404.8c-.4 4.7-.7 9.5-1.4 14.2l-3.5 28.3c-3 18.8-5.9 37.6-10 56.1l-2.9 14c-1.1 4.6-2.3 9.2-3.4 13.9l-.5 2.1c4.6-1.8 9.2-3.5 13.8-5.4.6-2.7 1.3-5.3 1.9-8l2.8-14.2c4-18.8 6.7-37.9 9.5-57l3.2-28.7c.6-4.8.8-9.6 1.2-14.4l.5-7.4c-3.8 1.8-7.5 3.6-11.3 5.4l.1 1.1zM550.4 453.9l2.7-2.4c.9-.8 1.8-1.7 2.6-2.5l2.4-2.4c-10.3-3.3-20.5-6.7-30.7-10.3l8.4-7.6 10.8-9.8 2.7-2.5 2.6-2.6 5.2-5.1 10.4-10.2 5.2-5.1 2.6-2.6 2.5-2.7 19.9-21.3c1.7-1.8 3.2-3.6 4.8-5.5l4.7-5.5 6.6-7.7c-8.9-2.5-17.8-5.2-26.7-8.1l-3.6 3.9c-1.6 1.7-3.2 3.5-4.9 5.1l-20 20-2.5 2.5c-.8.8-1.7 1.6-2.6 2.4l-5.2 4.8-10.4 9.6-5.2 4.8-2.6 2.4-2.7 2.3-10.8 9.1-10.8 9.1c-.9.8-1.8 1.5-2.7 2.3l-2.8 2.2-5.6 4.4c10 4 20.2 7.8 30.4 11.5l-.1.1-10.8 9.1c-3.6 3-7.1 6.1-10.9 8.9L481 471.8c-15.2 11-30.4 22.1-46.3 32.2l-11.8 7.8c-.9.5-1.7 1.1-2.6 1.6 12.1 5.4 24.4 10.5 36.7 15.4 14.8-10.1 28.9-21.1 43.1-31.9L523 478c3.8-3 7.4-6.4 11-9.6l10.9-9.7 5.5-4.8zM749.1 494.3c-2.7 3.9-5.3 7.8-8.3 11.5l-17.2 22.5c-11.9 14.6-23.8 29.3-36.6 43.2l-9.4 10.6c-1.6 1.8-3.3 3.5-5 5.2l13.5 2.1c5.1.7 10.3 1.5 15.4 2.1l3.5-4.1c12.9-14.5 24.8-29.8 36.8-45.1l17.1-23.5c2.9-3.9 5.5-8 8.2-12l8.1-12.1 4-6 .9-1.3c-8.3-.5-16.7-1.1-25-1.8l-6 8.7zM994.4 482.3c-1.6 4.5-3.1 9-4.9 13.4l-10.6 26.5c-7.6 17.4-15.2 34.8-23.9 51.8l-6.3 12.8c-1.3 2.5-2.6 5-4 7.4 4.9-.5 9.8-1.1 14.6-1.7 0-.1.1-.1.1-.2l6.3-13c8.7-17.2 16.1-35 23.7-52.7l10.4-26.9c1.8-4.5 3.3-9.1 4.8-13.6l4.7-13.7.1-.4c-4.1.8-8.2 1.6-12.2 2.3l-2.8 8zM1457.4 365.4c-1.3-19.4-4.1-38.6-6.6-57.8l-4.8-28.7c-.7-4.8-1.8-9.5-2.8-14.3l-1.6-7.6c-6.3 5.6-12.7 11.2-19.1 16.6.6 3 1.1 6 1.5 9l4.2 28c2.1 18.8 4.3 37.5 5.4 56.4l1 14.1c.2 4.7.3 9.4.5 14.2l.3 9.4c3.2-2.3 6.4-4.7 9.5-7 4.8-3.6 9.6-7.2 14.3-10.9-.1-2.4-.2-4.7-.4-7.1l-1.4-14.3zM1331.5 349l-.4-7.4c-3.5 2.3-7 4.5-10.6 6.8v1.1c.2 4.8.5 9.5.4 14.3l.1 28.5c-.6 19-1.1 38-2.8 57l-1.1 14.2c-.5 4.7-1.1 9.4-1.6 14.2l-.3 2.2c4.4-2.3 8.7-4.7 13-7.1.3-2.7.6-5.5.8-8.2l1-14.4c1.6-19.2 1.9-38.5 2.3-57.7l-.4-28.9c.3-5-.1-9.8-.4-14.6zM866.1 497.5c-2.2 4.2-4.3 8.4-6.7 12.5l-14.2 24.5c-10 16-19.9 32.1-30.9 47.5l-8 11.7c-1.4 2-2.8 3.9-4.3 5.8 4.5.1 9.1.3 13.6.3 5.2.1 10.4.1 15.6.2l3-4.5c11-16 20.8-32.7 30.8-49.4l14-25.5c2.4-4.2 4.5-8.6 6.7-12.9l6.5-13 3.2-6.5.7-1.4c-8.3.6-16.7 1-25.1 1.3l-4.9 9.4zM1107.9 454.6c-1 4.6-1.9 9.3-3.2 13.9l-7.1 27.6c-5.4 18.2-10.7 36.5-17.2 54.4l-4.6 13.5c-1 2.6-2 5.2-3 7.9 4.8-1.1 9.5-2.3 14.3-3.6 0-.1.1-.1.1-.2l4.6-13.7c6.4-18.2 11.6-36.8 16.8-55.3l6.9-28c1.2-4.7 2.1-9.4 3.1-14.1l2.9-14.2.1-.4c-3.9 1.3-7.9 2.6-11.9 3.9l-1.8 8.3zM1552.4 280.1c-3.8-19-8.9-37.8-13.9-56.5l-8.4-27.8c-1.3-4.7-3-9.2-4.6-13.8l-2.5-7.3c-5.5 6.4-11.2 12.7-16.9 18.9 1 2.9 1.9 5.8 2.7 8.8l7.7 27.3c4.5 18.3 9 36.7 12.4 55.3l2.8 13.9c.8 4.6 1.5 9.3 2.2 14l1.5 9.3c2.9-2.7 5.7-5.4 8.6-8.2 4.3-4.2 8.6-8.4 12.8-12.6-.4-2.3-.8-4.6-1.3-7l-3.1-14.3zM1001.4 365.5l-7.1 27.6-.9 3.5c-.3 1.1-.7 2.3-1 3.4l-2.1 6.8-4.1 13.7-2.1 6.8-1 3.4-1.2 3.4-4.7 13.5-4.7 13.5c-.4 1.1-.8 2.3-1.2 3.4l-1.3 3.3-2.6 6.6-2.5 6.3c4.1-.6 8.2-1.2 12.3-1.9l.2-.6 2.6-6.7 1.3-3.4c.4-1.1.8-2.3 1.2-3.4l4.6-13.7 4.6-13.7 1.1-3.4 1-3.5 2-6.9 4-13.9 2-6.9c.3-1.2.7-2.3 1-3.5l.9-3.5 6.9-28c.6-2.3 1.1-4.7 1.5-7.1l.3-1.7c-3.3.8-6.7 1.5-10 2.2-.2 1.5-.6 3-1 4.4zM806.8 387.1l3.2-6.5.9-1.7c-6.8-.2-13.6-.5-20.4-.8l-.2.3c-1.1 2.1-2.2 4.2-3.4 6.2l-14.2 24.6-1.8 3.1c-.6 1-1.3 2-1.9 3l-3.8 6-7.6 12-3.8 6-1.9 3-2 2.9-8.1 11.6-8.1 11.6c-.7 1-1.3 2-2 2.9l-2.1 2.8-4.3 5.7-2.8 3.7c8.3 1 16.6 1.9 25 2.7l1.8-2.5c.7-1 1.3-2 2-3l8-12.1 8-12.1 2-3 1.9-3.1 3.7-6.2 7.5-12.4 3.7-6.2c.6-1 1.3-2.1 1.9-3.1l1.7-3.2 13.9-25.5c1.1-2.3 2.2-4.5 3.2-6.7zM1415.1 264l-.6-3.6c-.2-1.2-.5-2.4-.8-3.6l-3.1-14.2-3.1-14.2-.8-3.5-.9-3.5-1.8-7-3.7-14-1.8-7c-.3-1.2-.6-2.3-.9-3.5l-1.1-3.5-8.5-27.7c-.1-.5-.3-1-.5-1.5-5.1 4.9-10.3 9.7-15.6 14.5l5.6 20.1 1 3.4c.3 1.1.6 2.3.8 3.4l1.6 6.9 3.3 13.8 1.6 6.9.8 3.5.7 3.5 2.7 13.9 2.7 13.9c.2 1.2.5 2.3.7 3.5l.5 3.5 1.1 7 2.2 14c.3 2 .6 4 .9 5.9 6.7-5.2 13.2-10.5 19.7-15.9l-1.3-7.7-1.4-7.3zM1195.8 332.9l-.5 14.3-.3 7.1-.1 3.6-.3 3.6-1.1 14.2-1.1 14.2-.3 3.6-.4 3.5-.8 7.1-1.7 14.1c3.9-1.6 7.7-3.3 11.5-5l.9-7.9.8-7.2.4-3.6.3-3.6 1-14.4 1-14.4.2-3.6.1-3.6.2-7.2.4-14.4.2-7.2c0-1.2.1-2.4.1-3.6l-.1-3.6-.5-28.9v-2.3c-3.1 1.6-6.3 3.3-9.4 4.9l.1 26.2v3.6c0 1.2-.1 2.4-.1 3.6l-.5 6.9zM1099.9 338.2l-3.6 28.3-.4 3.5c-.2 1.2-.4 2.3-.6 3.5l-1.2 7-2.4 14.1-1.2 7-.6 3.5-.7 3.5-2.9 14-2.9 14c-.3 1.2-.5 2.3-.8 3.5l-.9 3.5-1.8 6.9-1.7 6.6c4-1.1 8-2.3 12-3.4l.1-.6 1.7-7 .8-3.5c.3-1.2.5-2.4.7-3.5l2.8-14.2 2.8-14.2.7-3.5.6-3.6 1.1-7.1 2.2-14.3 1.1-7.1c.2-1.2.4-2.4.5-3.6l.4-3.6 3.3-28.7c.3-2.4.5-4.8.6-7.2l.1-1.8c-3.2 1.2-6.4 2.3-9.6 3.5.2 1.5 0 3-.2 4.5zM892.1 377.6c-.8 2.2-1.6 4.4-2.6 6.6l-11 26.2-1.4 3.3c-.5 1.1-1 2.1-1.5 3.2l-3 6.4-6 12.8-3 6.4-1.5 3.2-1.6 3.1-6.6 12.6-6.5 12.6c-.6 1-1.1 2.1-1.7 3.1l-1.8 3.1-3.5 6.2-2.3 4c8.4 0 16.8-.2 25.1-.4l1.5-2.7c.6-1.1 1.1-2.2 1.6-3.3l6.4-13 6.4-13 1.6-3.3 1.5-3.3 2.9-6.6 5.9-13.3 2.9-6.6c.5-1.1 1-2.2 1.4-3.3l1.3-3.4 10.6-27c.9-2.2 1.7-4.5 2.5-6.8l2.4-6.9.6-1.8c-6.8.7-13.6 1.2-20.4 1.7l-.2.2zM646 460.1l9.5-11.1 2.4-2.8 2.3-2.9 4.5-5.7 9-11.5 4.5-5.7c.7-1 1.5-1.9 2.2-2.9l2.1-3 17-23.7c1.4-1.9 2.8-4 4.1-6l4-6.1 5.6-8.5c-9.2-1.4-18.4-2.9-27.5-4.6l-3.1 4.3c-1.4 1.9-2.7 3.8-4.2 5.7L661.1 398l-2.2 2.8c-.7.9-1.5 1.8-2.3 2.7l-4.6 5.4-9.1 10.8-4.5 5.4-2.3 2.7-2.4 2.6-9.5 10.4-9.5 10.4c-.8.9-1.6 1.7-2.4 2.6l-2.5 2.5-5 5c10.3 2.7 20.7 5.1 31.1 7.5l-9 9.8c-3.2 3.4-6.3 7-9.7 10.3l-19.9 20c-13.7 12.9-27.4 25.7-41.8 37.8l-10.7 9.2c-.8.6-1.6 1.3-2.4 1.9 12.7 3.8 25.5 7.3 38.4 10.6 13.4-11.9 26-24.6 38.7-37.1l20.1-21.3c3.4-3.5 6.5-7.2 9.7-10.9l9.6-11 4.8-5.5 2.4-2.8c.8-.9 1.5-1.9 2.3-2.8l2.1-2.7c-10.5-1.9-20.9-4-31.3-6.3l6.8-7.9zM1497.5 185.4l-1.1-3.5c-.4-1.2-.8-2.3-1.2-3.4l-4.9-13.7-4.9-13.7-1.2-3.4-1.4-3.4-2.7-6.7-5.4-13.5-2.7-6.7c-.5-1.1-.9-2.3-1.4-3.4l-1.5-3.3-12-26.4c-.2-.5-.4-1-.7-1.5-4.5 5.5-9 10.9-13.6 16.3l8.1 19.2 1.4 3.3c.5 1.1.8 2.2 1.3 3.3l2.5 6.6 5 13.3 2.5 6.6 1.2 3.3 1.1 3.4 4.4 13.5 4.4 13.5c.4 1.1.8 2.2 1.1 3.4l1 3.4 1.9 6.8 3.9 13.6c.5 1.9 1.1 3.8 1.7 5.8 5.9-6 11.8-12.1 17.6-18.3l-2.3-7.5-2.1-6.9zM1303.3 344.6l-.1-3.6c0-1.2-.1-2.4-.2-3.6l-.9-14.4-.9-14.4-.2-3.6-.4-3.6-.7-7.2-1.5-14.4-.7-7.2c-.1-1.2-.2-2.4-.4-3.6l-.5-3.6-4.1-28.6c-.1-.8-.2-1.5-.3-2.3l-8.7 6 3.4 26 .5 3.5.3 3.6.6 7.1 1.3 14.2.6 7.1.3 3.6.2 3.6.7 14.3.7 14.2c0 1.2.1 2.4.2 3.6v3.6l.1 7.1.1 14.2c3.6-2.1 7.2-4.2 10.8-6.4l-.2-8v-7.2zM1229.4 261.3l-1.4-14.4c-.7-9.6-2.2-19.1-3.5-28.7l-2-14.3c-.3-2.4-.8-4.7-1.2-7.1l-1.3-7.1-2.5-14.1-1.3-7.1-.3-1.8-.1-.4v-.2s-.1-.5-.1-.4l-.2-.9-.9-3.5c-.4-1.9-.9-3.7-1.4-5.6 2-1.3 3.9-2.6 5.9-3.9-4.3-16.7-9.1-33.3-14.7-49.7-6.1-18.2-13-36.2-20.7-53.8-.8-1.9-1.7-3.8-2.5-5.7-1.5 1.1-3 2.2-4.5 3.4.6 1.5 1.3 3.1 1.9 4.6 14 34 25 69.1 33.5 104.8-2 1.3-3.9 2.6-5.9 3.8l.9 3.9.8 3.5.2.9v.2l.1.4.3 1.8 1.2 7.1 2.3 14.2 1.2 7.1c.4 2.4.8 4.7 1 7.1l1.7 14.1c1.1 9.4 2.4 18.8 3 28.3l1.1 14.2.6 7.1c.2 2.4.4 4.7.4 7.1l.1 3.3c3.1-1.7 6.2-3.4 9.2-5.2-.1-2-.3-3.9-.5-5.9l-.4-7.1zM1051.2 128.5c-.6-3.9-1.3-7.8-2-11.8-1.7.7-3.4 1.3-5.1 2 .5 3.5 1.1 7 1.5 10.6 4.7 34.4 6.5 69.1 6 103.8-2.2.7-4.5 1.5-6.7 2.2l-.3 10.2-.1 3.6v1.5l-.2 1.8-.7 7.1-1.4 14.3-.7 7.1c-.2 2.4-.4 4.8-.8 7.1l-1.9 14.1c-1.3 9.4-2.4 18.8-4.3 28.2l-2.5 14.1-1.3 7c-.2 1.2-.4 2.3-.6 3.5 3.3-.8 6.6-1.7 9.9-2.6l1-6.3 2.3-14.2c1.7-9.5 2.7-19.1 3.9-28.6l1.7-14.4c.3-2.4.5-4.8.7-7.2l.6-7.2 1.1-14.3.6-7.2.1-1.8V250.5v-1.3l.1-3.6c.1-4 .1-7.9.2-11.9 2.2-.7 4.5-1.5 6.7-2.3-.1-15.2-.5-30.5-1.6-45.7-1.2-19-3.3-38.2-6.2-57.2zM1133 153c-3.7-18.9-8.2-37.6-13.6-56.1-1.1-3.8-2.2-7.6-3.4-11.4-1.6.9-3.2 1.8-4.8 2.6 1 3.4 1.9 6.8 2.9 10.3 9 33.5 15.1 67.7 19 102.2-2.1 1-4.2 2-6.4 3 .4 3.4.7 6.8 1 10.2l.3 3.6.1.9V218.9l.1 1.8.2 7.2.5 14.3.2 7.2c.1 2.4.2 4.8.1 7.2l-.1 14.3c-.1 9.5 0 19-.7 28.5l-.7 14.3-.4 7.1c-.1 1.2-.1 2.4-.2 3.6 3.2-1.3 6.4-2.5 9.5-3.8l.2-6.4.5-14.4c.5-9.6.3-19.3.2-28.9l-.1-14.5c0-2.4-.1-4.8-.2-7.2l-.3-7.2-.7-14.3-.3-7.2-.1-1.8V218.1v-.4l-.1-.9-.4-3.6c-.4-3.9-.9-7.9-1.4-11.8 2.1-1 4.2-2 6.4-3.1-2-15.3-4.4-30.4-7.3-45.3zM648.3 1.9c-1.3 3-2.5 5.9-3.8 8.9l2.1.9c-.5 1-.9 2.1-1.4 3.1-1 2.2-1.9 4.3-3 6.4-1 2.1-2 4.3-3.1 6.4-2.2 4.2-4.3 8.4-6.6 12.5-9 16.6-19.2 32.5-30.2 47.8-4.3 6-8.6 11.8-13.1 17.6 1.8.8 3.6 1.6 5.3 2.4-6.9 9.1-14.1 17.9-21.6 26.5-12.3 14.3-25.2 28-38.6 41.1-5.7 5.6-11.6 11.2-17.5 16.6-2.1-1.1-4.1-2.1-6.2-3.2-8.2 7.4-16.5 14.6-25 21.6l-2.7 2.3-.2.2-.2.1-.4.3-1.4 1.1-5.8 4.3-11.6 8.5-5.8 4.3c-1.9 1.4-3.8 2.9-5.8 4.1l-11.6 7.8c-7.7 5.2-15.3 10.6-23.4 15.4l-2.9 1.8c-3.3-2-6.6-4.1-9.9-6.2-4.6-2.9-9.1-5.9-13.7-8.9l-9.3 5.3-6.1 3.5c-2 1.2-4.1 2.4-6.2 3.4l-24.9 13-3.1 1.6c-1 .5-2.1 1-3.2 1.5l-6.4 3-12.7 6-6.3 3-3.2 1.5-3.2 1.4-12.9 5.5-12.9 5.5c-1 .4-2 .9-3 1.3 8.4 6.5 17 12.8 25.7 19l-3.1 1.3-6.5 2.7-12.9 5.4c-4.3 1.8-8.6 3.7-13 5.3l-26.2 9.8c-17.7 6-35.4 12-53.4 16.9l-8 2.3c13.9 11.6 28.2 22.8 42.7 33.6 11.3-4 22.6-8.3 33.8-12.6l27.1-11.4c4.6-1.8 8.9-4 13.4-6.1l13.3-6.2 6.6-3.1 3.3-1.6c1.1-.5 2.2-1.1 3.3-1.7l13-6.8 5.7-2.9c-9-5.7-17.8-11.6-26.6-17.7l7.2-3.4 3.3-1.6 3.2-1.7 6.5-3.4 13-6.9 6.5-3.4c1.1-.6 2.2-1.1 3.2-1.7l3.2-1.9 25.3-14.8c2.1-1.2 4.2-2.6 6.2-3.9l6.2-4 12.3-7.9c3.4-2.1 6.7-4.4 10.1-6.7 2.1 1.2 4.2 2.5 6.3 3.7 6 3.5 12 6.9 18.1 10.3 4.6-3.5 9.2-7 13.9-10.5l11.7-8.9c2-1.5 3.8-3 5.6-4.5l5.5-4.6 11-9.2 5.5-4.6 1.4-1.2 1.3-1.1.7-.6 2.7-2.5c10.5-9.9 20.8-20.1 30.8-30.6 2.1 1 4.2 2 6.4 3 3.6-3.9 7.1-7.8 10.6-11.7 12.9-14.6 25.3-29.7 36.9-45.3 8-10.8 15.6-22 22.8-33.4-1.8-.7-3.6-1.5-5.4-2.3 3.2-4.9 6.3-9.9 9.4-15 10-16.7 19.1-33.9 26.8-51.8 2-4.4 3.7-9 5.6-13.5.9-2.3 1.7-4.6 2.5-6.8.9-2.3 1.7-4.6 2.4-6.9.6-1.6 1.1-3.3 1.7-5-.8-.3-1.5-.6-2.3-.9l2.4-7.8 1.2-4.4H649l-.7 2zM480.5 14.3c-5.3 4.3-10.7 8.6-16.2 12.7l4.5 3.6c-9.3 7.2-18.9 14-28.7 20.6-22 14.8-44.9 28.3-68.4 40.5-1.6-1.5-3.2-2.9-4.8-4.4-9.9 5-19.9 9.8-30 14.4l-3.2 1.5-.8.4h-.1c.3-.1.9-.4.8-.4l-.2.1-.4.2-1.7.7-6.7 2.6-13.4 5.2-6.7 2.6c-2.2.9-4.5 1.8-6.6 2.5l-13.1 4.5c-8.8 3-17.4 6.1-26.4 8.7l-4.2 1.3c-6.5-6.8-12.9-13.7-19.1-20.7l-9.7 2.5-6.8 1.8c-2.3.6-4.5 1.2-6.8 1.7l-27.3 6-3.4.8c-1.1.2-2.3.4-3.4.6l-6.9 1.2-13.7 2.5-6.9 1.2-3.4.6-3.5.5-13.8 1.9-13.8 1.9c-1.2.2-2.3.3-3.5.5l-1.5.1c6.5 8.4 13.1 16.7 19.8 24.9l-1.6.2-6.9.9-13.8 1.9c-4.6.6-9.2 1.4-13.8 1.7L66.7 167c-18.5 1.2-37 2.5-55.5 2.6l-11.2.2c4.5 6.4 9.2 12.7 13.9 19.1 9 12.1 18.3 24 27.8 35.7 10.2-1 20.5-2.1 30.7-3.3l29.3-4.3c4.9-.6 9.7-1.7 14.6-2.6l14.5-2.7 7.3-1.4 3.6-.7c1.2-.2 2.4-.6 3.6-.8l14.4-3.4 10.7-2.5c-7.3-7.7-14.4-15.6-21.4-23.6l3.3-.6 3.6-.7 3.6-.9 7.2-1.7 14.3-3.5 7.2-1.7 3.6-.9 3.5-1 28.3-8.2c2.4-.6 4.7-1.4 7-2.2l7-2.3 14-4.7c5.1-1.6 10.2-3.5 15.4-5.4 6.7 6.7 13.4 13.2 20.3 19.6l12.6-5.4 13.7-5.8c2.3-.9 4.4-2 6.6-3l6.5-3.1 13-6.2 6.5-3.1 1.6-.8 1.7-.8.8-.4 3.2-1.8c13.5-7.5 26.8-15.4 39.9-23.7l5.1 4.2c3.6-2.3 7.2-4.7 10.7-7.1 16.2-11 31.9-22.7 47.1-35.1 11.1-9.1 21.8-18.6 32.2-28.6-1.6-1.2-3.1-2.3-4.7-3.5 3.7-3.5 7.4-7.1 11.1-10.7 9.6-9.7 18.9-19.7 27.6-30.1h-24.9c-5.8 4.8-11.4 9.6-17.1 14.2zM1509.9 7.2l-6 9.3 6.7 11.6 1.8 3.1c.6 1 1.1 2.1 1.7 3.1l3.3 6.3 6.6 12.5 3.3 6.3 1.6 3.1 1.5 3.2 6 12.8 6 12.8c.5 1.1 1 2.1 1.5 3.2l1.4 3.2 2.8 6.5 5.6 13c1.8 4.3 3.8 8.6 5.4 13l.3.7c6.5-8.5 12.9-17.2 19.1-26l10.8 25.6c6.7 17.6 13.5 35.1 19.2 53l4.5 13.4c1.4 4.5 2.6 9 4 13.5l3.9 13.5 1.6 5.4c8.7-10.6 17.3-21.3 25.6-32.3l-3.3-10.5-4.9-13.8c-6.3-18.5-13.9-36.4-21.3-54.4L1606 91.5c-1.9-4.5-4.2-8.8-6.4-13.1l-1.8-3.7c-5.9 9-11.9 17.9-18 26.7l-4.5-9.8-3.1-6.6-1.5-3.3c-.5-1.1-1.1-2.2-1.7-3.3l-6.7-13-6.7-13-1.7-3.2-1.8-3.2-3.6-6.3-7.2-12.7-3.6-6.3c-.6-1.1-1.2-2.1-1.8-3.2l-1.9-3.1-9.1-14.4h-10.5l-4.5 7.2z"/><path class="st0" d="M706.8 7.4l-1.5 6.9-1.7 6.9c-.9 3.1-1.7 6.2-2.6 9.3.9.3 1.7.5 2.6.8-.4 1.4-.8 2.7-1.2 4.1-.7 2.3-1.4 4.5-2.1 6.8-.8 2.2-1.5 4.5-2.3 6.7-1.6 4.4-3.2 8.9-5 13.3-6.8 17.6-14.9 34.7-23.9 51.2-3.5 6.4-7.1 12.8-10.8 19.1 1.9.6 3.8 1.2 5.6 1.8-5.7 9.9-11.7 19.6-18.1 29.1-10.4 15.7-21.4 30.9-33.1 45.7-5 6.3-10.1 12.5-15.2 18.6-2.2-.8-4.4-1.6-6.6-2.5-7.2 8.4-14.5 16.6-22.1 24.6l-2.4 2.6-.2.2-.2.2-.3.3-1.3 1.2-5.2 5-10.4 9.9-5.2 5c-1.7 1.6-3.4 3.4-5.2 4.8l-10.5 9.2c-7 6.1-13.8 12.4-21.2 18.2l-2.1 1.7c-3.6-1.6-7.1-3.3-10.7-4.9-4.9-2.3-9.8-4.7-14.7-7.1l-8.6 6.5-5.6 4.2c-1.9 1.4-3.7 2.8-5.7 4.1l-23.1 16-2.9 2c-1 .7-2 1.3-3 1.9l-5.9 3.8-11.8 7.5-5.9 3.8-3 1.9-3 1.8-12.1 7.1-12.1 7.1c-.9.5-1.9 1.1-2.8 1.6 9.2 5.4 18.6 10.6 28 15.7-.2.2-.5.3-.7.5l-3 1.7-6.1 3.5-12.1 7c-4.1 2.3-8 4.8-12.2 6.9l-24.8 13.1c-16.8 8.2-33.5 16.4-50.8 23.5l-7.7 3.3c15.3 9.7 30.8 19 46.6 28 10.7-5.4 21.4-11.1 32-16.7l25.5-14.7c4.3-2.4 8.4-5.1 12.5-7.7l12.4-7.9 6.2-3.9 3.1-2 3-2.1 12.1-8.4 5.2-3.6c-9.7-4.6-19.2-9.3-28.7-14.2l7.5-4.8 3.1-2 3-2.1 6-4.2 12-8.5 6-4.2 3-2.1 2.9-2.2 23.2-17.9c2-1.5 3.8-3.1 5.7-4.6l5.6-4.7 11.2-9.4c2.9-2.4 5.8-4.9 8.7-7.4 2.2 1 4.5 1.9 6.7 2.9 6.4 2.7 12.8 5.4 19.2 7.9 4.2-4 8.3-8.1 12.4-12.2l10.5-10.3c1.8-1.7 3.4-3.5 5-5.2l4.9-5.3 9.8-10.5 4.9-5.3 1.2-1.3 1.1-1.2.6-.7 2.3-2.8c9.2-11.2 18.1-22.5 26.7-34.2 2.3.7 4.5 1.5 6.8 2.2 3.1-4.3 6.1-8.6 9.1-13 11-16.1 21.3-32.6 30.9-49.6 6.6-11.8 12.7-23.8 18.5-36-1.9-.5-3.8-1-5.7-1.6 2.5-5.3 5-10.6 7.4-16 7.8-17.8 14.6-36.1 20-54.8 1.4-4.7 2.6-9.4 3.8-14.1.6-2.4 1.1-4.7 1.7-7.1.6-2.4 1.1-4.7 1.5-7.1.4-1.7.7-3.4 1-5.1-.9-.2-1.8-.5-2.7-.7.6-3 1.1-5.9 1.6-8.9l1-7.2c.4-2.4.6-4.8.9-7.2.3-2.8.5-5.6.7-8.4h-5.6c-.5 2-1 4.5-1.5 6.9zM583.6 1.4c-2.7 3.8-5.4 7.7-8.3 11.4-11.2 15.1-23.5 29.4-36.5 42.9-4.7 5-9.6 9.9-14.5 14.6 1.6 1 3.3 2.1 4.9 3.1-8.4 8.3-17 16.3-25.9 24-20 17.5-41.1 33.8-63 49-1.9-1.3-3.8-2.6-5.6-3.9-9.2 6.2-18.5 12.3-28 18.1l-3 1.9-.7.5h-.1c.3-.2.9-.6.7-.5l-.2.1-.4.2-1.6.9-6.3 3.4-12.6 6.9-6.3 3.4c-2.1 1.1-4.2 2.3-6.3 3.3l-12.5 6.1c-8.3 4.1-16.4 8.3-25.1 11.9l-3.7 1.6c-7.2-5.9-14.4-11.9-21.4-18.1l-9.3 3.7-6.5 2.6c-2.2.9-4.3 1.8-6.5 2.5l-26.3 9.4-3.3 1.2c-1.1.4-2.2.7-3.3 1.1l-6.7 2.1L232 209l-6.6 2.1-3.3 1.1-3.4.9-13.5 3.7-13.4 3.7c-1.1.3-2.2.6-3.4.9l-1.4.3c7.5 7.6 15.1 15 22.9 22.2l-1.9.5-6.7 1.8-13.4 3.6c-4.5 1.2-8.9 2.5-13.5 3.4l-27.1 6.2c-18.2 3.5-36.4 7.1-54.8 9.6l-11 1.6c5.3 5.8 10.7 11.5 16.2 17.2 10.5 10.9 21.2 21.5 32.1 31.9 10-2.3 20-4.7 30-7.1l28.5-7.9c4.8-1.2 9.4-2.9 14.1-4.4l14.1-4.6 7-2.3 3.5-1.1c1.2-.4 2.3-.8 3.5-1.3l13.9-5.2 10.3-3.8c-8.2-6.7-16.3-13.6-24.2-20.7l3.5-1.2 3.5-1.2 3.5-1.3 6.9-2.6 13.8-5.3 6.9-2.6c1.1-.4 2.3-.9 3.4-1.3l3.4-1.5 27.1-11.7c2.3-.9 4.5-2 6.7-3.1l6.6-3.2 13.3-6.4c4.8-2.2 9.5-4.7 14.2-7.2 7.4 5.7 14.9 11.3 22.5 16.8 4-2.3 7.9-4.6 11.9-6.9l12.8-7.5c2.2-1.2 4.1-2.5 6.2-3.8l6-3.9 12.1-7.8 6-3.9 1.5-1 1.6-1 .7-.5 3-2.2c12.5-9.2 24.8-18.8 36.8-28.8 2 1.2 3.9 2.5 5.9 3.7 3.3-2.8 6.5-5.6 9.7-8.4 14.7-13 28.8-26.6 42.3-40.8 9.8-10.4 19.3-21.2 28.3-32.4-1.7-1-3.4-1.9-5.1-2.9 3.3-3.9 6.5-7.9 9.6-12C566.8 54 578 37.9 587.8 21c2.5-4.2 4.8-8.5 7.1-12.8 1.1-2.2 2.2-4.3 3.3-6.5.3-.6.6-1.2.9-1.7h-14.6c-.3.5-.6.9-.9 1.4zM1714.8 78.4l-6.6-13c-8.5-17.5-18.4-34.4-28-51.3L1671.4 0h-30.2c-.4.8-.8 1.5-1.2 2.3l-1.4-2.3h-34.9c0 .1.1.1.1.2l1.8 3 3.6 6.1 7.1 12.2c2.4 4.1 4.8 8.1 7 12.2l.3.6c5.4-9.3 10.5-18.7 15.6-28.1l13.7 23.6c8.9 16.6 17.8 33.1 25.7 50.1l6.1 12.7c1.9 4.3 3.8 8.6 5.6 12.9l5.6 12.9 2.2 5.2c7.3-11.6 14.4-23.4 21.3-35.3-1.5-3.3-3-6.6-4.6-9.9zM880.8 1.1c.5 2.3 1.2 4.6 1.6 6.9l1.4 7c.8 4.7 1.7 9.3 2.4 14.1.4 2.3.7 4.7 1 7.1s.6 4.7.8 7.1c.1.8.2 1.6.2 2.5.9-.1 1.8-.2 2.8-.3.4 4 .8 8 1.1 11.9 1.5 18.9 1.5 38 .5 56.9-.7 14.2-2 28.4-3.8 42.5l6-.6c-.6 4.7-1.2 9.3-1.8 13.9-4.7 33.1-12 65.8-21.4 97.8l-6.9.3c-1.4 4.5-2.7 8.9-4.2 13.4l-1.1 3.4-.2.7-.1.2-.2.4-.6 1.7-2.6 6.7-5.2 13.4-2.6 6.7c-.9 2.2-1.7 4.5-2.7 6.6l-5.6 13c-3.8 8.6-7.3 17.3-11.6 25.8l-6.2 12.8-3.1 6.4c-.1.2-.2.4-.3.5 6.8.1 13.6.2 20.5.1l5.5-12.4c4.1-8.7 7.5-17.9 11.2-26.9l5.4-13.5c.9-2.3 1.7-4.5 2.5-6.8l2.4-6.8 4.7-13.5 2.4-6.8.6-1.7.1-.4.1-.2.2-.6.2-.9 1-3.5c1.7-6.1 3.4-12.2 5-18.3 2.3-.2 4.6-.3 6.9-.5 3.2-12.8 6.1-25.6 8.5-38.5 3.6-19 6.5-38.1 8.5-57.3.6-5.9 1.1-11.8 1.5-17.7-2 .2-4 .5-6 .7 1.1-13.3 1.7-26.6 1.8-40 .1-19.3-.8-38.6-3.2-57.8-.5-4.2-1.1-8.5-1.8-12.7-.9.1-1.8.2-2.8.4l-.3-1.8c-.4-2.4-.8-4.8-1.2-7.1-.4-2.4-.9-4.7-1.3-7.1-.9-4.7-2-9.4-3.1-14.1l-1.9-7c-.6-2.3-1.4-4.6-2-6.9 0-.1 0-.1-.1-.2h-3.4c.3.3.4.6.5 1zM1351.7 34.9c-1.5 1.9-3 3.6-4.6 5.3l1.5 2.9.4.7.1.2.2.4.7 1.6 3 6.5 6 13.1 3 6.5c1 2.2 2 4.3 2.9 6.5l5.4 13.1c3.5 8.7 7.3 17.4 10.4 26.4l4.8 13.4 2.4 6.7c.8 2.2 1.6 4.4 2.3 6.7l2.6 8.2c5.1-4.9 10.1-9.9 15.1-15-.7-2.1-1.5-4.1-2.4-6.2l-2.7-6.7-5.3-13.5c-3.4-9-7.5-17.9-11.4-26.8l-5.9-13.3c-1-2.2-2-4.4-3.1-6.5l-3.2-6.4-6.4-12.9-3.2-6.4-.8-1.6-.2-.4-.1-.2-.3-.6-.5-.8-1.8-3.1-2.1-3.6c1.5-1.8 3.1-3.6 4.6-5.4-4.7-8-9.6-15.8-14.6-23.6h-16.8c6.9 11.4 13.6 23 20 34.8zM1420.5 1.7c1.2 2 2.6 4.1 3.7 6.1l7 12.3c4.6 8.2 9.4 16.3 13.6 24.8l6.5 12.6 3.2 6.3c1.1 2.1 2.2 4.2 3.1 6.4l3.6 7.8c4.4-5.5 8.8-11.1 13.1-16.8-1-2-2.1-3.9-3.1-5.9l-3.5-6.4-7-12.7c-4.5-8.5-9.7-16.8-14.7-25.1L1439.1 0h-19.7l1.1 1.7zM939.1 5.4c1.4 4.5 2.9 9.1 4.1 13.6.7 2.3 1.3 4.6 1.9 6.9.6 2.3 1.2 4.6 1.7 6.9.2.8.4 1.6.5 2.4.9-.2 1.8-.5 2.7-.7.9 3.9 1.8 7.8 2.6 11.7 3.8 18.6 6.3 37.5 7.7 56.4 1.1 14.2 1.6 28.4 1.6 42.6 2-.4 3.9-.9 5.9-1.4v14.1c-.5 33.5-3.6 67-8.9 100.1-2.4.4-4.9.9-7.3 1.3-.8 4.6-1.6 9.2-2.5 13.8l-.6 3.5-.1.7v.2l-.1.4-.4 1.7-1.7 7-3.5 13.9-1.7 7c-.6 2.3-1.1 4.7-1.8 6.9l-4 13.6c-2.7 9-5.1 18.1-8.3 27.1l-4.5 13.5-2.3 6.7c-.1.2-.1.4-.2.6 6.8-.7 13.6-1.5 20.3-2.4l3.9-13c3-9.2 5.2-18.7 7.7-28.1l3.7-14.1c.7-2.4 1.1-4.7 1.6-7l1.5-7 3-14 1.5-7 .4-1.8.1-.4v-.2s.2-.9.1-.6l.1-.9.5-3.6c1-6.4 1.9-12.8 2.7-19.2 2.4-.5 4.9-1 7.3-1.5 1.6-13.1 2.8-26.2 3.6-39.3 1.2-19.3 1.6-38.6 1.2-57.9-.1-5.9-.4-11.8-.7-17.7-2 .5-3.9 1-5.9 1.5-.6-13.3-1.7-26.7-3.3-39.9-2.3-19.2-5.7-38.2-10.5-56.9-1-4.2-2.2-8.3-3.4-12.4-.9.2-1.8.5-2.7.7-.2-.6-.3-1.2-.5-1.8l-2.1-6.9c-.7-2.3-1.4-4.6-2.2-6.9-1.4-4.6-3.1-9.1-4.8-13.6l-1.6-4h-4.1l1.8 5.4zM1236.2 3.4c18.2 31.9 33.5 65.4 46.5 99.7-1.8 1.5-3.6 3.1-5.4 4.6.5 1.3.9 2.5 1.4 3.8l1.2 3.4.3.8.1.2.1.4.5 1.7 2 6.9 4.1 13.8 2 6.9c.7 2.3 1.4 4.6 1.9 6.9l3.5 13.8c2.3 9.2 4.8 18.4 6.6 27.7l2.9 14 1.5 7c.5 2.3 1 4.7 1.3 7l.5 3.2c2.8-2.1 5.7-4.2 8.5-6.3-.4-1.9-.8-3.9-1.2-5.8l-1.6-7-3.2-14.1c-1.9-9.4-4.6-18.7-7.1-28l-3.7-14c-.6-2.3-1.3-4.6-2.1-6.9l-2.1-6.8-4.3-13.7-2.1-6.8-.5-1.7-.1-.4-.1-.2s-.2-.5-.1-.4l-.3-.8-1.3-3.4-2.1-5.4c1.8-1.5 3.6-3.1 5.3-4.6-6.4-16-13.3-31.9-20.8-47.4-8.4-17.3-17.5-34.3-27.3-50.8-.1-.2-.2-.4-.3-.5h-6.4c.6.9 1.2 2 1.9 3.2zM768.7 5.2c-.1 2.4-.1 4.7-.3 7.1l-.4 7.1c-.4 4.7-.8 9.4-1.4 14.2-.3 2.4-.5 4.7-.9 7-.2 1.2-.4 2.4-.5 3.6.9.1 1.8.3 2.7.4-.1 1-.3 2.1-.5 3.1-.8 4.7-1.5 9.3-2.5 14-3.6 18.6-8.5 36.9-14.4 54.9-3.8 11.7-8 23.2-12.6 34.6 2 .3 3.9.6 5.9 1-2.4 6.1-4.9 12.1-7.4 18.1-7.4 17.4-15.6 34.4-24.5 51.1-5.9 11.1-12.2 22.1-18.7 33-2.4-.5-4.7-1-7.1-1.5-3.4 5.5-6.8 11-10.3 16.4l-1.9 3-.3.5-.1.1-.3.4-1.1 1.4-4.2 5.8-8.5 11.6-4.2 5.8c-1.4 1.9-2.8 3.9-4.3 5.7l-8.8 11c-5.9 7.3-11.5 14.8-17.8 21.8l-9.2 10.7-1.8 2c8.9 2.5 17.9 4.9 27 7.2l3.3-4.2c6.2-7.5 11.8-15.5 17.6-23.4L670 317c1.5-2 2.8-4 4.1-5.9l4-6 7.9-12 4-6 1-1.5.8-1.2.5-.8 1.8-3.2c4.4-7.6 8.8-15.3 12.9-23 2.4.4 4.8.9 7.1 1.3 5-9.5 9.9-19.2 14.4-29 8.2-17.6 15.8-35.4 22.4-53.7 2.8-7.6 5.4-15.2 7.8-22.9-1-.1-2-.2-2.9-.4-1-.1-2-.3-3-.4 3.5-10.7 6.7-21.4 9.5-32.3 4.8-18.8 8.7-37.8 11.1-57 .7-4.8 1.1-9.6 1.5-14.4l.3-4.2c-.9-.1-1.8-.2-2.8-.4.1-.9.1-1.8.2-2.7.2-2.4.3-4.8.4-7.2.3-4.8.3-9.7.4-14.5l-.1-7.2c0-2.4-.2-4.8-.3-7.2-.1-1.7-.2-3.4-.3-5.2h-4.2c.2 1.7.2 3.5.2 5.2zM823.5 9.8c.2 2.4.5 4.7.6 7.1l.5 7.1c.2 4.7.4 9.5.4 14.2 0 2.4.1 4.7 0 7.1 0 1.2 0 2.5-.1 3.7h2.8c0 1.2 0 2.4-.1 3.6-.2 4.7-.3 9.5-.7 14.2-1.2 18.9-3.7 37.7-7.3 56.3-2.3 12.1-5 24.1-8.1 35.9 2 .1 4 .1 6 .2-1.6 6.3-3.3 12.7-5.1 19-5.2 18.2-11.2 36.1-17.9 53.8-4.4 11.6-9.1 23.1-14.1 34.5-2.3-.2-4.7-.4-7-.6-2.6 5.9-5.4 11.7-8.2 17.6l-1.5 3.2-.2.5-.1.2-.2.4-.9 1.6-3.5 6.3-7 12.6-3.5 6.3c-1.2 2.1-2.3 4.2-3.5 6.2l-7.3 12c-4.9 8-9.5 16.1-14.9 23.9l-7.8 11.8-1.5 2.2c9.2 1.4 18.4 2.6 27.7 3.7l2.8-4.6c5.2-8.2 9.7-16.9 14.5-25.4l7.1-12.8c1.2-2.1 2.2-4.3 3.3-6.4l3.2-6.4 6.4-12.9 3.2-6.4.8-1.6.6-1.3.4-.8 1.4-3.4c3.4-7.9 6.6-15.9 9.7-23.9 2.3.1 4.7.3 7 .4 3.8-10.1 7.4-20.3 10.7-30.6 5.9-18.5 11.2-37.2 15.5-56.1 1.8-7.9 3.4-15.8 4.9-23.7h-6c2.1-11 3.9-22.1 5.4-33.3 2.4-19.2 3.9-38.6 3.8-57.9 0-4.8-.2-9.7-.3-14.5-.1-1.4-.1-2.8-.2-4.2h-2.8c-.1-1.1-.1-2.2-.2-3.2-.1-2.4-.3-4.8-.5-7.2-.3-4.8-.9-9.6-1.4-14.4l-1-7.2c-.3-2.4-.8-4.8-1.2-7.1-.5-3.4-1.1-6.5-1.8-9.5h-4c.5 3.2.9 6.5 1.2 9.8zM1003.7 1.9c.9 2.2 1.9 4.4 2.8 6.6.9 2.3 1.8 4.7 2.7 7 .8-.3 1.5-.6 2.3-.9.8 2 1.5 3.9 2.2 5.9 6.6 17.9 11.9 36.2 16.2 54.8 3.6 15.4 6.5 30.9 8.7 46.6 1.7-.6 3.4-1.3 5.2-2-2.5-15.3-5.7-30.6-9.5-45.7-4.8-18.6-10.5-37-17.6-54.9-.9-2.4-1.9-4.8-2.9-7.1-.8.3-1.5.6-2.3.9-1-2.3-1.6-3.8-2.4-5.8-1-2.2-2-4.4-2.9-6.6-.1-.3-.3-.6-.4-.9h-2.8c.1.8.4 1.5.7 2.1zM1149.9 2.2c8.2 15.7 15.7 31.7 22.4 48.1 1.5-1.1 3.1-2.2 4.6-3.3-6.9-16-14.6-31.7-23-46.9 0 0 0-.1-.1-.1h-5.1c.4.7.8 1.5 1.2 2.2zM1091.5 46.9c5.5 14.8 10.3 29.9 14.5 45.1 1.6-.9 3.2-1.7 4.9-2.6-4.4-14.9-9.5-29.6-15.2-44.1-6.1-15.4-12.9-30.6-20.7-45.3h-3.7c7.7 15.2 14.3 30.9 20.2 46.9z"/></svg>