<svg fill="#FFF" xmlns="http://www.w3.org/2000/svg" viewBox="0 0 583.07 648.15"><path d="M22.5 550.4V154.6c0-40.5-7.3-100.2 37.4-122.1C111 7.3 174.4 62.2 215.8 86.1c56.6 32.7 113.3 65.4 169.9 98.1l76.8 44.4c25.4 14.7 56 27.8 77.1 48.8 43 42.7 15.3 91-28.6 117.5-57 34.5-115.6 66.8-173.3 100.1-63.5 36.7-126.4 74.7-190.7 109.7-27 14.7-56.5 29-87 14.1-27.3-13.3-32.6-41.5-37.5-68.4zM133 468.3l-30.6 31.6s27.3-14.7 37.4-20.6l42-24.3c29.6-17.1 59.2-34.2 88.7-51.2l84-48.6c11.2-6.5 39.9-21.6 39.9-21.6l43.1 11.7s-29.6-18.1-40.7-24.5l-41-23.7-86.6-50-82.1-47.3c-10.7-6.2-40-24.1-40-24.1s-11.8-31.2-14.7-43.6"/></svg>