<svg xmlns="http://www.w3.org/2000/svg" xmlns:xlink="http://www.w3.org/1999/xlink" width="335" height="307" viewBox="0 0 335 307"><defs><path id="a" d="M40.018 152.155c0 70.81 57.408 128.208 128.23 128.208 70.814 0 128.2-57.398 128.2-128.208 0-70.809-57.386-128.221-128.2-128.221-70.822 0-128.23 57.412-128.23 128.221"/></defs><clipPath id="b"><use xlink:href="#a" overflow="visible"/></clipPath><linearGradient id="c" gradientUnits="userSpaceOnUse" x1="-378" y1="737.999" x2="-377" y2="737.999" gradientTransform="matrix(0 261.02 261.02 0 -192464.25 98686.055)"><stop offset="0" stop-color="#b9bebe"/><stop offset=".111" stop-color="#c9cccb"/><stop offset=".19" stop-color="#d8d8d6"/><stop offset=".356" stop-color="#c3c5c4"/><stop offset=".519" stop-color="#b1b9bb"/><stop offset=".76" stop-color="#9fa1a4"/><stop offset=".961" stop-color="#949597"/><stop offset=".964" stop-color="#949597"/><stop offset="1" stop-color="#949597"/></linearGradient><path clip-path="url(#b)" fill="url(#c)" d="M40.018 23.934h256.43v256.429H40.018z"/><defs><path id="d" d="M55.756 152.035c0 62.312 50.541 112.844 112.862 112.844 62.336 0 112.848-50.532 112.848-112.844 0-62.333-50.512-112.862-112.848-112.862-62.321 0-112.862 50.529-112.862 112.862"/></defs><clipPath id="e"><use xlink:href="#d" overflow="visible"/></clipPath><linearGradient id="f" gradientUnits="userSpaceOnUse" x1="-378" y1="738" x2="-377" y2="738" gradientTransform="scale(229.9062) rotate(-90 180.942 -557.792)"><stop offset="0" stop-color="#dbdcde"/><stop offset="1" stop-color="#808184"/></linearGradient><path clip-path="url(#e)" fill="url(#f)" d="M55.756 39.173h225.71v225.706H55.756z"/><g><defs><path id="g" d="M56.85 152.031c0 61.293 49.684 110.99 110.995 110.99 61.306 0 110.993-49.697 110.993-110.99 0-61.312-49.687-110.989-110.993-110.989-61.311 0-110.995 49.678-110.995 110.989"/></defs><clipPath id="h"><use xlink:href="#g" overflow="visible"/></clipPath><radialGradient id="i" cx="-377.997" cy="737.998" r="1.001" gradientTransform="scale(-163.0562 163.0562) rotate(-89.568 -560.952 179.462)" gradientUnits="userSpaceOnUse"><stop offset="0" stop-color="#fff"/><stop offset=".472" stop-color="#fff"/><stop offset=".545" stop-color="#f7f7f8"/><stop offset=".658" stop-color="#e1e0e6"/><stop offset=".669" stop-color="#dfdee4"/><stop offset=".954" stop-color="#d8d9e5"/><stop offset="1" stop-color="#d8d9e5"/></radialGradient><path clip-path="url(#h)" fill="url(#i)" d="M56.862 264.693L55.178 41.055l223.647-1.685 1.685 223.638z"/></g><path fill="#1C3E6F" d="M259.489 173.927h-1.374v2.916h-.69v-2.916h-1.366v-.61h3.43zM264.179 176.842h-.627v-2.177c0-.086 0-.206.017-.387-.06.146-.078.267-.172.387l-1.108 1.735h-.137l-1.107-1.761a1.728 1.728 0 0 1-.21-.361c0 .146.056.267.056.387v2.177h-.576v-3.525h.576l1.374 2.125 1.374-2.125h.541v3.525z"/><path fill="#6D1A26" d="M118.805 79.719h68.8l-10.554 16.785-68.783.035 10.537-16.82zm49.825 84.137h-20.135v.013H81.507l21.174-33.674H87.125l10.58-16.829h64.82l-10.598 16.829h-29.071l-10.727 16.854h46.784l42.761-67.92 53.225 84.727H234.82l-10.564-16.807h-31.493l10.607-16.876h10.293l-11.989-19.13-33.044 52.813z"/><path fill="#A92023" d="M82.065 163.561l21.178-33.674h-15.56l10.198-16.206h64.085l-10.211 16.206h-29.067l-11.126 17.472h47.519l42.593-67.645 52.663 83.834H234.99l-10.562-16.807h-31.102l10.216-16.258h10.683l-12.551-20.023-33.219 53.088h-20.269v.013H82.065zm36.913-83.529h68.061l-10.164 16.163-68.048.03 10.151-16.193z"/><path fill="#1C3E6F" d="M104.648 200.554c.077 2.125-.563 3.912-1.937 5.354-1.383 1.439-3.104 2.148-5.14 2.109-2.89-.069-5.78-.133-8.678-.193-2.062-.047-3.814-.808-5.196-2.246-1.391-1.443-2.113-3.204-2.16-5.355-.026-1.172-.047-2.34-.073-3.512 1.743.034 3.487.064 5.23.094.288 1.095.576 2.186.859 3.281.386 1.357 1.31 2.07 2.774 2.1 1.95.038 3.895.081 5.844.12.743.017 1.327-.241 1.757-.803.429-.528.618-1.25.592-2.087a556.237 556.237 0 0 1-.12-3.899c-.052-1.92-.88-2.911-2.508-2.938l-7.308-.116c-1.988-.03-3.715-.786-5.166-2.276-1.404-1.503-2.152-3.276-2.195-5.372l-.102-5.106c-.043-2.044.635-3.796 2.001-5.247 1.408-1.469 3.13-2.186 5.135-2.173 2.86.017 5.712.03 8.554.048 2.031.012 3.753.729 5.162 2.142 1.417 1.43 2.108 3.195 2.121 5.329.013 1.069.021 2.143.034 3.217-1.769-.018-3.543-.039-5.316-.056-.279-.967-.554-1.937-.833-2.908-.429-1.386-1.348-2.069-2.714-2.082-1.915-.013-3.834-.026-5.758-.043-.743-.004-1.331.271-1.765.824-.455.554-.648 1.246-.631 2.092.013.992.03 1.988.047 2.984.034 1.868.85 2.813 2.482 2.83l7.317.09c1.984.026 3.723.79 5.196 2.323 1.494 1.542 2.25 3.324 2.306 5.41.057 2.029.117 4.052.189 6.065m24.43-21.715c.473.558.705 1.241.696 2.112-.026 1.748-.039 3.5-.052 5.252-.004.863-.249 1.572-.73 2.138a2.313 2.313 0 0 1-1.829.842h-8.606c.009-3.731.043-7.463.112-11.169 2.864-.004 5.733-.004 8.597-.004.738 0 1.347.271 1.812.829m7.05.932c.026-2.075-.687-3.852-2.139-5.312-1.472-1.486-3.267-2.212-5.358-2.212h-16.146a657.887 657.887 0 0 0 .008 35.924h6.317a602.002 602.002 0 0 1-.232-13.174c3.272 0 6.557.005 9.842.005 2.091 0 3.908-.756 5.41-2.242 1.482-1.486 2.229-3.306 2.234-5.415.014-2.533.03-5.058.064-7.574m55.458-.941c.451.563.691 1.258.696 2.113.013 1.481.025 2.958.03 4.444.008.863-.219 1.559-.661 2.117-.456.524-1.083.803-1.821.803h-8.301c-.004-3.448-.021-6.892-.043-10.31 2.761 0 5.518.004 8.279.004.735 0 1.361.271 1.821.829m8.344 29.341c-1.975-4.882-4.01-9.846-6.097-14.827a8.155 8.155 0 0 0 3.513-2.842c.901-1.319 1.352-2.822 1.343-4.453-.012-2.096-.03-4.192-.055-6.278-.03-2.062-.812-3.852-2.306-5.312-1.504-1.486-3.311-2.212-5.436-2.212h-15.794c.068 11.8.068 24.129 0 35.924h6.333c.052-4.62.082-9.322.095-14.041h6.016c1.936 4.715 3.839 9.417 5.689 14.041h6.699zm26.726-35.923h-24.579c.046 1.911.085 3.826.119 5.759 3.037 0 6.072.004 9.113.004a671.82 671.82 0 0 1-.134 30.161h6.317a647.3 647.3 0 0 0 .142-30.157c3.048 0 6.101.005 9.151.005-.035-1.93-.077-3.853-.129-5.772m28.156 21.508c.039-2.022-.597-3.714-1.979-5.17-1.345-1.451-2.989-2.16-4.956-2.134-2.423.034-4.853.064-7.282.099-1.662.021-2.491-.906-2.469-2.8.012-1.005.021-2.014.029-3.019.004-.854.236-1.554.699-2.121.443-.562 1.07-.842 1.833-.842l5.793.013c1.336.005 2.216.679 2.603 2.044.254.953.503 1.903.753 2.856 1.708-.009 3.413-.022 5.112-.03.023-1.044.048-2.087.065-3.131.047-2.082-.602-3.808-1.915-5.208-1.348-1.4-3.014-2.122-5.021-2.143-2.859-.03-5.715-.064-8.574-.095-2.087-.021-3.883.696-5.344 2.182-1.49 1.486-2.245 3.28-2.25 5.376a655.108 655.108 0 0 1-.043 5.239c-.021 2.151.705 3.946 2.156 5.44 1.43 1.461 3.195 2.156 5.26 2.105 2.448-.056 4.888-.121 7.327-.181 1.61-.038 2.383.902 2.339 2.787a687.296 687.296 0 0 1-.086 3.822c-.024.82-.257 1.541-.699 2.087-.464.58-1.06.867-1.795.901-1.94.082-3.886.159-5.826.241-1.494.064-2.375-.593-2.701-1.932-.241-1.087-.481-2.173-.727-3.26-1.825.06-3.65.121-5.479.176-.03 1.199-.069 2.392-.108 3.586-.068 2.186.584 3.925 1.972 5.286 1.378 1.348 3.099 1.984 5.212 1.877l8.661-.439c1.992-.098 3.728-.918 5.149-2.421 1.404-1.499 2.121-3.273 2.163-5.329.047-1.953.089-3.908.128-5.862m-88.14-13.994c0-2.087-.739-3.899-2.233-5.333-1.503-1.456-3.277-2.182-5.398-2.182h-8.536c-2.122 0-3.929.726-5.446 2.212-1.494 1.455-2.275 3.246-2.301 5.307-.068 6.884-.068 13.857 0 20.736.026 2.186.807 3.985 2.306 5.458 1.512 1.469 3.323 2.211 5.441 2.211h8.536c2.121 0 3.895-.742 5.398-2.211 1.494-1.469 2.233-3.268 2.233-5.453-.004-6.883-.004-13.861 0-20.745m-7.064-.932c.477.558.717 1.254.713 2.108a2855.7 2855.7 0 0 0 .004 18.512c0 .842-.24 1.537-.717 2.1-.49.58-1.091.867-1.833.867h-6.077c-.773 0-1.387-.291-1.88-.871-.451-.563-.683-1.254-.692-2.1-.047-6.145-.047-12.358 0-18.503.004-.855.241-1.555.692-2.113.493-.558 1.107-.829 1.88-.833h6.072c.744.001 1.349.272 1.838.833"/></svg>